<svg width="68" height="27" viewBox="0 0 68 27" fill="none" xmlns="http://www.w3.org/2000/svg">
<path d="M22.725 0.0156915C22.62 0.0306915 22.215 0.0831915 21.825 0.128192C20.6925 0.255692 19.215 0.495692 18.5625 0.660692C16.8375 1.08069 15.18 1.62819 15.06 1.80069C14.9775 1.92069 15.06 2.11569 15.4125 2.70819C15.585 2.99319 15.93 3.58569 16.1775 4.02069C16.425 4.45569 16.935 5.34819 17.325 6.00819C17.7075 6.66819 18.12 7.39569 18.2475 7.62069C18.3675 7.84569 18.495 8.06319 18.525 8.10819C18.555 8.14569 18.6525 8.30319 18.735 8.44569C19.065 9.03819 20.055 10.7557 20.2575 11.0932C20.3775 11.2957 20.475 11.4757 20.4825 11.5057C20.4825 11.5357 20.61 11.7457 20.76 11.9707C20.9625 12.2707 21.105 12.3982 21.2625 12.4282C21.39 12.4582 22.1325 12.4807 22.9125 12.4882C23.7 12.4957 25.4025 12.5257 26.7 12.5707C27.9975 12.6082 30.2775 12.6607 31.7625 12.6832C33.2475 12.7132 34.4775 12.7432 34.5 12.7582C34.5225 12.7657 35.6175 12.8032 36.9375 12.8332C38.2575 12.8632 39.39 12.8932 39.45 12.9082C39.51 12.9157 40.56 12.9532 41.775 12.9832C42.99 13.0132 44.01 13.0507 44.0325 13.0657C44.055 13.0732 44.5275 13.0957 45.0825 13.1032C46.8825 13.1257 48.075 13.3507 48.075 13.6582C48.075 13.7182 47.985 13.8157 47.8725 13.8607C47.4225 14.0407 45.2625 14.1907 42.1875 14.2582C40.995 14.2807 39.81 14.3182 39.5625 14.3407C38.835 14.4007 32.175 14.5957 27.1875 14.7007C23.8575 14.7757 22.5 14.8282 22.4625 14.9032C22.44 14.9407 22.6875 15.4282 23.01 15.9982C23.34 16.5682 23.685 17.1907 23.79 17.3782C23.895 17.5657 24.135 17.9707 24.315 18.2782C24.5025 18.5857 24.84 19.1557 25.065 19.5457C25.29 19.9357 25.7775 20.7607 26.1375 21.3832C26.4975 21.9982 26.895 22.6957 27.0225 22.9207C27.1425 23.1457 27.3075 23.4232 27.39 23.5357C27.465 23.6407 27.525 23.7532 27.525 23.7832C27.525 23.8132 27.585 23.9257 27.66 24.0307C27.7425 24.1432 27.9075 24.4282 28.0425 24.6757C28.17 24.9157 28.515 25.5157 28.8075 26.0032L29.3325 26.8957H29.655C30.075 26.8957 31.4325 26.6482 32.7525 26.3332C36.5775 25.4107 40.6725 23.4607 44.325 20.8282C46.3125 19.3957 47.9475 17.9932 50.1825 15.8182C50.8725 15.1432 51.3375 14.7457 51.435 14.7457C51.5175 14.7457 51.6825 14.8207 51.8025 14.9182C52.5825 15.5482 61.1325 21.3007 64.755 23.6332C65.655 24.2107 66.51 24.7582 66.6525 24.8557C67.0275 25.0957 67.17 25.0507 67.1475 24.6832C67.1175 24.2332 66.6075 22.2907 66.3825 21.7582C66.345 21.6757 66.24 21.4057 66.1425 21.1582C65.8275 20.3182 65.04 18.8182 64.44 17.9257C63.24 16.1332 61.7475 14.6932 60.435 14.0707C59.9775 13.8532 59.7075 13.6582 59.7825 13.5907C59.7975 13.5832 60.15 13.3882 60.5625 13.1707C61.5675 12.6382 62.07 12.2482 63.0525 11.2207C64.83 9.38319 66.24 6.48819 67.005 3.15069C67.2075 2.23569 67.155 2.10069 66.69 2.38569C66.54 2.48319 66.36 2.58819 66.285 2.63319C65.0775 3.33069 61.53 5.67819 58.6875 7.65819C57.99 8.14569 57.195 8.70069 56.925 8.88069C56.3475 9.28569 55.2675 10.0432 54.45 10.6207C52.905 11.7082 51.5325 12.6457 51.4725 12.6457C51.4425 12.6457 50.79 12.0307 50.025 11.2807C46.8525 8.17569 43.62 5.63319 40.7625 4.00569C40.05 3.60069 37.4625 2.29569 37.365 2.29569C37.3275 2.29569 36.9675 2.16069 36.555 1.99569C34.89 1.31319 32.655 0.668192 30.9975 0.383192C29.1975 0.0756915 28.4775 0.0231915 25.6875 0.00819152C24.165 -0.00680848 22.83 0.000691519 22.725 0.0156915Z" fill="white"/>
<path d="M11.43 3.44318C11.22 3.53318 11.0025 3.64568 10.9425 3.69068C10.8825 3.74318 10.5525 3.92318 10.2 4.09568C9.6 4.39568 9.2775 4.59068 7.725 5.61818C6.4275 6.48068 4.935 7.60568 4.35 8.17568C4.2075 8.31068 3.9375 8.52818 3.75 8.65568C3.5625 8.78318 3.36 8.94068 3.3 9.02318C3.2325 9.09818 2.9325 9.37568 2.625 9.64568C1.89 10.2757 0.465 11.7232 0.2925 12.0082C0.09 12.3382 0.1125 12.4057 0.4725 12.5032C0.915 12.6157 1.9575 13.1482 2.1225 13.3357C2.3025 13.5457 2.28 13.7857 2.0775 13.9807C1.815 14.2282 1.05 14.5957 0.81 14.5957C0.6075 14.5957 0 14.8507 0 14.9407C0 15.2257 2.1825 17.3032 4.6575 19.3732C5.5275 20.1082 6.0675 20.5207 6.1425 20.5207C6.18 20.5207 6.4425 20.7007 6.72 20.9182C7.26 21.3382 7.725 21.6382 9.1575 22.5007C10.6425 23.3932 13.5375 24.7582 14.9625 25.2307C15.3375 25.3582 15.9225 25.5607 16.275 25.6882C17.01 25.9507 18.7575 26.4082 19.3125 26.4832C19.5225 26.5132 20.01 26.5957 20.4 26.6707C21.795 26.9407 22.4775 27.0082 23.8275 27.0082C25.275 27.0082 25.485 26.9632 25.29 26.6857C25.245 26.6182 25.095 26.3407 24.96 26.0707C24.8325 25.8007 24.6525 25.4782 24.555 25.3582C24.465 25.2307 24.3075 24.9457 24.21 24.7207C24.105 24.4957 23.85 24.0232 23.64 23.6857C23.4225 23.3407 23.25 23.0407 23.25 23.0257C23.25 23.0032 23.1525 22.8457 23.0325 22.6732C22.92 22.5007 22.7475 22.2082 22.65 22.0207C22.56 21.8332 22.425 21.6157 22.35 21.5332C22.275 21.4507 22.0125 20.9782 21.765 20.4757C21.51 19.9807 21.255 19.5232 21.1875 19.4707C21.1125 19.4107 20.9775 19.1932 20.88 18.9832C20.7 18.6007 20.505 18.2557 20.0625 17.5207C19.9275 17.2957 19.7175 16.9207 19.5975 16.6957C19.485 16.4707 19.2225 16.0207 19.02 15.7057L18.66 15.1207L15.24 15.1357C10.9425 15.1507 9.7875 15.0682 8.475 14.6482C7.3125 14.2732 6.9 13.9957 6.9 13.5832C6.9 13.3807 6.96 13.2832 7.1925 13.0807C7.5 12.8182 8.01 12.5932 8.5125 12.4957C8.6775 12.4582 9.0975 12.3607 9.4425 12.2707C10.335 12.0457 10.305 12.0457 13.5375 12.0007C17.1225 11.9557 16.92 12.0457 16.2675 10.7932C16.05 10.3882 15.855 10.0207 15.825 9.98318C15.69 9.81068 14.775 8.27318 14.775 8.22068C14.775 8.19068 14.6625 7.99568 14.5275 7.80068C14.3925 7.59818 14.1225 7.14818 13.935 6.79568C13.7475 6.44318 13.4625 5.95568 13.2975 5.70818C13.1325 5.46068 12.8025 4.89068 12.5625 4.44068C12.3225 3.99068 12.0525 3.54818 11.97 3.45068L11.8125 3.27818L11.43 3.44318Z" fill="#BF0A0D"/>
</svg>
