<svg width="150" height="124" viewBox="0 0 150 124" fill="none" xmlns="http://www.w3.org/2000/svg">
<path d="M70.5 34.97C70.395 34.985 69.99 35.0375 69.6 35.0825C68.4675 35.21 66.99 35.45 66.3375 35.615C64.6125 36.035 62.955 36.5825 62.835 36.755C62.7525 36.875 62.835 37.07 63.1875 37.6625C63.36 37.9475 63.705 38.54 63.9525 38.975C64.2 39.41 64.71 40.3025 65.1 40.9625C65.4825 41.6225 65.895 42.35 66.0225 42.575C66.1425 42.8 66.27 43.0175 66.3 43.0625C66.33 43.1 66.4275 43.2575 66.51 43.4C66.84 43.9925 67.83 45.71 68.0325 46.0475C68.1525 46.25 68.25 46.43 68.2575 46.46C68.2575 46.49 68.385 46.7 68.535 46.925C68.7375 47.225 68.88 47.3525 69.0375 47.3825C69.165 47.4125 69.9075 47.435 70.6875 47.4425C71.475 47.45 73.1775 47.48 74.475 47.525C75.7725 47.5625 78.0525 47.615 79.5375 47.6375C81.0225 47.6675 82.2525 47.6975 82.275 47.7125C82.2975 47.72 83.3925 47.7575 84.7125 47.7875C86.0325 47.8175 87.165 47.8475 87.225 47.8625C87.285 47.87 88.335 47.9075 89.55 47.9375C90.765 47.9675 91.785 48.005 91.8075 48.02C91.83 48.0275 92.3025 48.05 92.8575 48.0575C94.6575 48.08 95.85 48.305 95.85 48.6125C95.85 48.6725 95.76 48.77 95.6475 48.815C95.1975 48.995 93.0375 49.145 89.9625 49.2125C88.77 49.235 87.585 49.2725 87.3375 49.295C86.61 49.355 79.95 49.55 74.9625 49.655C71.6325 49.73 70.275 49.7825 70.2375 49.8575C70.215 49.895 70.4625 50.3825 70.785 50.9525C71.115 51.5225 71.46 52.145 71.565 52.3325C71.67 52.52 71.91 52.925 72.09 53.2325C72.2775 53.54 72.615 54.11 72.84 54.5C73.065 54.89 73.5525 55.715 73.9125 56.3375C74.2725 56.9525 74.67 57.65 74.7975 57.875C74.9175 58.1 75.0825 58.3775 75.165 58.49C75.24 58.595 75.3 58.7075 75.3 58.7375C75.3 58.7675 75.36 58.88 75.435 58.985C75.5175 59.0975 75.6825 59.3825 75.8175 59.63C75.945 59.87 76.29 60.47 76.5825 60.9575L77.1075 61.85H77.43C77.85 61.85 79.2075 61.6025 80.5275 61.2875C84.3525 60.365 88.4475 58.415 92.1 55.7825C94.0875 54.35 95.7225 52.9475 97.9575 50.7725C98.6475 50.0975 99.1125 49.7 99.21 49.7C99.2925 49.7 99.4575 49.775 99.5775 49.8725C100.357 50.5025 108.907 56.255 112.53 58.5875C113.43 59.165 114.285 59.7125 114.427 59.81C114.802 60.05 114.945 60.005 114.922 59.6375C114.892 59.1875 114.382 57.245 114.157 56.7125C114.12 56.63 114.015 56.36 113.917 56.1125C113.602 55.2725 112.815 53.7725 112.215 52.88C111.015 51.0875 109.522 49.6475 108.21 49.025C107.752 48.8075 107.482 48.6125 107.557 48.545C107.572 48.5375 107.925 48.3425 108.337 48.125C109.342 47.5925 109.845 47.2025 110.827 46.175C112.605 44.3375 114.015 41.4425 114.78 38.105C114.982 37.19 114.93 37.055 114.465 37.34C114.315 37.4375 114.135 37.5425 114.06 37.5875C112.852 38.285 109.305 40.6325 106.462 42.6125C105.765 43.1 104.97 43.655 104.7 43.835C104.122 44.24 103.042 44.9975 102.225 45.575C100.68 46.6625 99.3075 47.6 99.2475 47.6C99.2175 47.6 98.565 46.985 97.8 46.235C94.6275 43.13 91.395 40.5875 88.5375 38.96C87.825 38.555 85.2375 37.25 85.14 37.25C85.1025 37.25 84.7425 37.115 84.33 36.95C82.665 36.2675 80.43 35.6225 78.7725 35.3375C76.9725 35.03 76.2525 34.9775 73.4625 34.9625C71.94 34.9475 70.605 34.955 70.5 34.97Z" fill="#0D0B0B"/>
<path d="M59.205 38.3975C58.995 38.4875 58.7775 38.6 58.7175 38.645C58.6575 38.6975 58.3275 38.8775 57.975 39.05C57.375 39.35 57.0525 39.545 55.5 40.5725C54.2025 41.435 52.71 42.56 52.125 43.13C51.9825 43.265 51.7125 43.4825 51.525 43.61C51.3375 43.7375 51.135 43.895 51.075 43.9775C51.0075 44.0525 50.7075 44.33 50.4 44.6C49.665 45.23 48.24 46.6775 48.0675 46.9625C47.865 47.2925 47.8875 47.36 48.2475 47.4575C48.69 47.57 49.7325 48.1025 49.8975 48.29C50.0775 48.5 50.055 48.74 49.8525 48.935C49.59 49.1825 48.825 49.55 48.585 49.55C48.3825 49.55 47.775 49.805 47.775 49.895C47.775 50.18 49.9575 52.2575 52.4325 54.3275C53.3025 55.0625 53.8425 55.475 53.9175 55.475C53.955 55.475 54.2175 55.655 54.495 55.8725C55.035 56.2925 55.5 56.5925 56.9325 57.455C58.4175 58.3475 61.3125 59.7125 62.7375 60.185C63.1125 60.3125 63.6975 60.515 64.05 60.6425C64.785 60.905 66.5325 61.3625 67.0875 61.4375C67.2975 61.4675 67.785 61.55 68.175 61.625C69.57 61.895 70.2525 61.9625 71.6025 61.9625C73.05 61.9625 73.26 61.9175 73.065 61.64C73.02 61.5725 72.87 61.295 72.735 61.025C72.6075 60.755 72.4275 60.4325 72.33 60.3125C72.24 60.185 72.0825 59.9 71.985 59.675C71.88 59.45 71.625 58.9775 71.415 58.64C71.1975 58.295 71.025 57.995 71.025 57.98C71.025 57.9575 70.9275 57.8 70.8075 57.6275C70.695 57.455 70.5225 57.1625 70.425 56.975C70.335 56.7875 70.2 56.57 70.125 56.4875C70.05 56.405 69.7875 55.9325 69.54 55.43C69.285 54.935 69.03 54.4775 68.9625 54.425C68.8875 54.365 68.7525 54.1475 68.655 53.9375C68.475 53.555 68.28 53.21 67.8375 52.475C67.7025 52.25 67.4925 51.875 67.3725 51.65C67.26 51.425 66.9975 50.975 66.795 50.66L66.435 50.075L63.015 50.09C58.7175 50.105 57.5625 50.0225 56.25 49.6025C55.0875 49.2275 54.675 48.95 54.675 48.5375C54.675 48.335 54.735 48.2375 54.9675 48.035C55.275 47.7725 55.785 47.5475 56.2875 47.45C56.4525 47.4125 56.8725 47.315 57.2175 47.225C58.11 47 58.08 47 61.3125 46.955C64.8975 46.91 64.695 47 64.0425 45.7475C63.825 45.3425 63.63 44.975 63.6 44.9375C63.465 44.765 62.55 43.2275 62.55 43.175C62.55 43.145 62.4375 42.95 62.3025 42.755C62.1675 42.5525 61.8975 42.1025 61.71 41.75C61.5225 41.3975 61.2375 40.91 61.0725 40.6625C60.9075 40.415 60.5775 39.845 60.3375 39.395C60.0975 38.945 59.8275 38.5025 59.745 38.405L59.5875 38.2325L59.205 38.3975Z" fill="#BF0A0D"/>
</svg>
